<svg xmlns="http://www.w3.org/2000/svg" viewBox="0 0 256 256" role="img" aria-label="PrintBhejo logo"><defs><linearGradient id="b" x1="0" y1="1" x2="1" y2="0"><stop offset="0" stop-color="#0879c9"/><stop offset="1" stop-color="#16c7e8"/></linearGradient><linearGradient id="g" x1="0" y1="1" x2="1" y2="0"><stop offset="0" stop-color="#20a7d9"/><stop offset=".55" stop-color="#64d44d"/><stop offset="1" stop-color="#d8ed45"/></linearGradient><linearGradient id="o" x1="0" y1="1" x2="1" y2="0"><stop offset="0" stop-color="#f04b2e"/><stop offset="1" stop-color="#ffc51b"/></linearGradient></defs><rect width="256" height="256" fill="#fff"/><path d="M28 174V74l48 30v42H45v28z" fill="none" stroke="#0879c9" stroke-width="14" stroke-linejoin="round"/><path d="M45 102l37-28 31 18-31 24z" fill="#ffb51b"/><path d="M62 194c32-28 53-59 64-91L229 20 102 87c-8 38-22 72-40 107z" fill="url(#g)"/><path d="M102 87 229 20 116 112z" fill="url(#b)"/><path d="M116 112 229 20 154 141z" fill="#0754a6"/><path d="M116 112c-8 32-22 61-43 87l40 34c26-28 43-60 51-92z" fill="url(#o)"/><path d="M82 158c22-15 40-31 55-49" fill="none" stroke="#b6ec50" stroke-width="8" stroke-linecap="round"/><g fill="#1b79c9"><circle cx="64" cy="125" r="6"/><circle cx="92" cy="151" r="5"/></g><g fill="#ed1970"><circle cx="86" cy="115" r="8"/><circle cx="72" cy="146" r="6"/></g><circle cx="105" cy="136" r="7" fill="#62c85a"/><g fill="#12a9d8"><circle cx="174" cy="166" r="7"/><circle cx="150" cy="190" r="5"/></g><g fill="#ffad16"><rect x="173" y="185" width="13" height="13" rx="2"/><rect x="200" y="162" width="10" height="10" rx="2"/></g><circle cx="192" cy="201" r="12" fill="#e31c74"/></svg>